<?xml version="1.0" encoding="us-ascii" standalone="no"?><svg xmlns="http://www.w3.org/2000/svg" xmlns:xlink="http://www.w3.org/1999/xlink" contentStyleType="text/css" height="257.2917px" preserveAspectRatio="none" style="width:820px;height:257px;" version="1.1" viewBox="0 0 820 257" width="820.8333px" zoomAndPan="magnify"><defs><linearGradient id="g1dl3y05fpcjmo0" x1="50%" x2="50%" y1="0%" y2="100%"><stop offset="0%" stop-color="#5C85AD"/><stop offset="100%" stop-color="#336699"/></linearGradient></defs><g><!--entity NixOS--><g id="elem_NixOS"><rect fill="url(#g1dl3y05fpcjmo0)" height="41.6341" rx="4.1667" ry="4.1667" style="stroke:#336699;stroke-width:1.0416666666666667;" width="78.125" x="67.1875" y="197.9167"/><text fill="#FFFFFF" font-family="Verdana" font-size="12.5" lengthAdjust="spacing" textLength="36.4583" x="88.0208" y="223.0611">NixOS</text></g><!--entity nixpkgs--><g id="elem_nixpkgs"><rect fill="url(#g1dl3y05fpcjmo0)" height="56.1849" rx="4.1667" ry="4.1667" style="stroke:#336699;stroke-width:1.0416666666666667;" width="208.3333" x="277.0833" y="190.625"/><text fill="#FFFFFF" font-family="Verdana" font-size="12.5" font-weight="bold" lengthAdjust="spacing" textLength="56.25" x="297.9167" y="215.7694">nixpkgs</text><text fill="#FFFFFF" font-family="Verdana" font-size="12.5" lengthAdjust="spacing" textLength="166.6667" x="297.9167" y="230.3202">github.com/NixOS/nixpkgs</text></g><!--entity nixlang--><g id="elem_nixlang"><rect fill="#FFA500" height="56.2174" rx="4.1667" ry="4.1667" style="stroke:#999999;stroke-width:1.0416666666666667;" width="164.5833" x="298.9583" y="28.125"/><text fill="#333333" font-family="Verdana" font-size="12.5" font-weight="bold" lengthAdjust="spacing" textLength="20.8333" x="319.7917" y="60.5611">nix</text><text fill="#333333" font-family="Verdana" font-size="12.5" lengthAdjust="spacing" textLength="97.9167" x="344.7917" y="60.5611">(the language)</text></g><!--entity nixcli--><g id="elem_nixcli"><rect fill="#FFA500" height="70.7682" rx="4.1667" ry="4.1667" style="stroke:#999999;stroke-width:1.0416666666666667;" width="177.0833" x="17.7083" y="20.8333"/><text fill="#333333" font-family="Verdana" font-size="12.5" font-weight="bold" lengthAdjust="spacing" textLength="20.8333" x="38.5417" y="53.2694">nix</text><text fill="#333333" font-family="Verdana" font-size="12.5" lengthAdjust="spacing" textLength="61.4583" x="63.5417" y="53.2694">(the tool)</text><text fill="#333333" font-family="Verdana" font-size="12.5" lengthAdjust="spacing" textLength="135.4167" x="38.5417" y="67.8202">github.com/NixOS/nix</text></g><!--entity flakes--><g id="elem_flakes"><rect fill="#FFA500" height="56.2174" rx="4.1667" ry="4.1667" style="stroke:#999999;stroke-width:1.0416666666666667;" width="108.3333" x="701.0417" y="190.625"/><text fill="#333333" font-family="Verdana" font-size="12.5" lengthAdjust="spacing" textLength="17.7083" x="721.875" y="223.0611">nix</text><text fill="#333333" font-family="Verdana" font-size="12.5" font-weight="bold" lengthAdjust="spacing" textLength="44.7917" x="743.75" y="223.0611">flakes</text></g><!--link nixcli to NixOS--><g id="link_nixcli_NixOS"><path d="M106.25,92.1042 C106.25,121.8333 106.25,163.9792 106.25,191.0729 " fill="none" id="nixcli-to-NixOS" style="stroke:#E2E2E2;stroke-width:3.125;"/><polygon fill="#E2E2E2" points="106.25,196.0521,110.4167,186.6771,106.25,190.8438,102.0833,186.6771,106.25,196.0521" style="stroke:#E2E2E2;stroke-width:3.125;"/><text fill="#303030" font-family="Verdana" font-size="12.5" lengthAdjust="spacing" textLength="38.5417" x="117.7083" y="145.9778">builds</text></g><!--link nixcli to nixlang--><g id="link_nixcli_nixlang"><path d="M195.1563,56.25 C226.2188,56.25 261.0729,56.25 292.1458,56.25 " fill="none" id="nixcli-to-nixlang" style="stroke:#E2E2E2;stroke-width:3.125;"/><polygon fill="#E2E2E2" points="297.1354,56.25,287.7604,52.0833,291.9271,56.25,287.7604,60.4167,297.1354,56.25" style="stroke:#E2E2E2;stroke-width:3.125;"/><text fill="#303030" font-family="Verdana" font-size="12.5" lengthAdjust="spacing" textLength="44.7917" x="224.4792" y="39.7278">parses</text></g><!--link NixOS to nixpkgs--><g id="link_NixOS_nixpkgs"><path d="M145.6458,218.75 C176.1354,218.75 220.0521,218.75 261.7292,218.75 " fill="none" id="NixOS-to-nixpkgs" style="stroke:#E2E2E2;stroke-width:3.125;"/><polygon fill="#E2E2E2" points="275.0729,218.75,268.8229,214.5833,262.5729,218.75,268.8229,222.9167,275.0729,218.75" style="stroke:#E2E2E2;stroke-width:3.125;"/><text fill="#303030" font-family="Verdana" font-size="12.5" lengthAdjust="spacing" textLength="72.9167" x="174.7396" y="202.2278">package of</text></g><!--link nixpkgs to flakes--><g id="link_nixpkgs_flakes"><path d="M485.9167,218.75 C547.125,218.75 623.0208,218.75 678.6354,218.75 " fill="none" id="nixpkgs-to-flakes" style="stroke:#E2E2E2;stroke-width:3.125;"/><polygon fill="none" points="678.3333,211.4583,699.1667,218.75,678.3333,226.0417,678.3333,211.4583" style="stroke:#E2E2E2;stroke-width:3.125;"/><text fill="#303030" font-family="Verdana" font-size="12.5" lengthAdjust="spacing" textLength="156.25" x="515.1042" y="202.2278">implements structure of</text></g><!--link nixlang to flakes--><g id="link_nixlang_flakes"><path d="M445.5313,84.8646 C515.3646,114.8229 626.0833,162.3229 694.4896,191.6563 " fill="none" id="nixlang-to-flakes" style="stroke:#E2E2E2;stroke-width:3.125;"/><polygon fill="#E2E2E2" points="699.1146,193.6458,692.1389,186.1231,694.3274,191.5942,688.8563,193.7826,699.1146,193.6458" style="stroke:#E2E2E2;stroke-width:3.125;"/></g><!--link nixlang to nixpkgs--><g id="link_nixlang_nixpkgs"><path d="M381.25,84.8646 C381.25,112.2708 381.25,154.3438 381.25,183.7708 " fill="none" id="nixlang-to-nixpkgs" style="stroke:#E2E2E2;stroke-width:3.125;"/><polygon fill="#E2E2E2" points="381.25,188.6458,385.4167,179.2708,381.25,183.4375,377.0833,179.2708,381.25,188.6458" style="stroke:#E2E2E2;stroke-width:3.125;"/><text fill="#303030" font-family="Verdana" font-size="12.5" lengthAdjust="spacing" textLength="94.7917" x="392.7083" y="145.9778">used to define</text></g><!--SRC=[TL2xJiGm4Epz5KCg3icNFZhb4w2WfN4Snx7YE94VqY7nyUSdK42tkpEpCxjFVXMxW5PozTAoJq8uipDUrVtjlPJTRHgDkf-RTBT-6Z-CL7uDqvKVUvzfVKKxC8TQ4oQ5yKsRT7YEJj3Co12nIoEdmNzaVnpwyhTVatEjcZfsY1iMpJQHasPEQGafN50wbji6J47fsVq0Dhs09aADDU1araLn5e2-jECImBTeYsCXTGRwDQ8hRjq0jPyw_jLu1-Tju3xOnawhSuuQxVVeso0uCSVxCOj56V40]--></g></svg>